<?xml version="1.0" encoding="utf-8" standalone="no"?>
<!DOCTYPE svg PUBLIC "-//W3C//DTD SVG 1.1//EN"
  "http://www.w3.org/Graphics/SVG/1.1/DTD/svg11.dtd">
<svg xmlns:xlink="http://www.w3.org/1999/xlink" width="1152pt" height="432pt" viewBox="0 0 1152 432" xmlns="http://www.w3.org/2000/svg" version="1.1">
 <metadata>
  <rdf:RDF xmlns:dc="http://purl.org/dc/elements/1.1/" xmlns:cc="http://creativecommons.org/ns#" xmlns:rdf="http://www.w3.org/1999/02/22-rdf-syntax-ns#">
   <cc:Work>
    <dc:type rdf:resource="http://purl.org/dc/dcmitype/StillImage"/>
    <dc:date>2022-02-15T10:16:05.653972</dc:date>
    <dc:format>image/svg+xml</dc:format>
    <dc:creator>
     <cc:Agent>
      <dc:title>Matplotlib v3.5.0, https://matplotlib.org/</dc:title>
     </cc:Agent>
    </dc:creator>
   </cc:Work>
  </rdf:RDF>
 </metadata>
 <defs>
  <style type="text/css">*{stroke-linejoin: round; stroke-linecap: butt}</style>
 </defs>
 <g id="figure_1">
  <g id="patch_1">
   <path d="M 0 432 
L 1152 432 
L 1152 0 
L 0 0 
L 0 432 
z
" style="fill: none"/>
  </g>
  <g id="axes_1">
   <g id="patch_2">
    <path d="M 126.72 369.36 
L 1128.96 369.36 
L 1128.96 8.64 
L 126.72 8.64 
z
" style="fill: #ffffff"/>
   </g>
   <g id="matplotlib.axis_1">
    <g id="xtick_1">
     <g id="line2d_1">
      <path d="M 172.276364 369.36 
L 172.276364 8.64 
" clip-path="url(#p5a5dbbaa35)" style="fill: none; stroke-dasharray: 0.4,0.66; stroke-dashoffset: 0; stroke: #b0b0b0; stroke-width: 0.4"/>
     </g>
     <g id="line2d_2">
      <defs>
       <path id="m74d1fbc885" d="M 0 0 
L 0 3.5 
" style="stroke: #000000; stroke-width: 0.8"/>
      </defs>
      <g>
       <use xlink:href="#m74d1fbc885" x="172.276364" y="369.36" style="stroke: #000000; stroke-width: 0.8"/>
      </g>
     </g>
     <g id="text_1">
      <!-- $\mathdefault{0.00}$ -->
      <g transform="translate(158.322032 386.621452)scale(0.17 -0.17)">
       <defs>
        <path id="CMR17-30" d="M 2688 2038 
C 2688 2430 2682 3099 2413 3613 
C 2176 4063 1798 4224 1466 4224 
C 1158 4224 768 4082 525 3620 
C 269 3137 243 2539 243 2038 
C 243 1671 250 1112 448 623 
C 723 -39 1216 -128 1466 -128 
C 1760 -128 2208 -7 2470 604 
C 2662 1048 2688 1568 2688 2038 
z
M 1466 -26 
C 1056 -26 813 328 723 816 
C 653 1196 653 1749 653 2109 
C 653 2604 653 3015 736 3407 
C 858 3954 1216 4121 1466 4121 
C 1728 4121 2067 3947 2189 3420 
C 2272 3054 2278 2623 2278 2109 
C 2278 1691 2278 1176 2202 797 
C 2067 96 1690 -26 1466 -26 
z
" transform="scale(0.015625)"/>
        <path id="CMMI12-3a" d="M 1178 307 
C 1178 492 1024 620 870 620 
C 685 620 557 467 557 313 
C 557 128 710 0 864 0 
C 1050 0 1178 153 1178 307 
z
" transform="scale(0.015625)"/>
       </defs>
       <use xlink:href="#CMR17-30" transform="scale(0.996264)"/>
       <use xlink:href="#CMMI12-3a" transform="translate(45.690477 0)scale(0.996264)"/>
       <use xlink:href="#CMR17-30" transform="translate(72.787654 0)scale(0.996264)"/>
       <use xlink:href="#CMR17-30" transform="translate(118.478131 0)scale(0.996264)"/>
      </g>
     </g>
    </g>
    <g id="xtick_2">
     <g id="line2d_3">
      <path d="M 394.502528 369.36 
L 394.502528 8.64 
" clip-path="url(#p5a5dbbaa35)" style="fill: none; stroke-dasharray: 0.4,0.66; stroke-dashoffset: 0; stroke: #b0b0b0; stroke-width: 0.4"/>
     </g>
     <g id="line2d_4">
      <g>
       <use xlink:href="#m74d1fbc885" x="394.502528" y="369.36" style="stroke: #000000; stroke-width: 0.8"/>
      </g>
     </g>
     <g id="text_2">
      <!-- $\mathdefault{0.01}$ -->
      <g transform="translate(380.548196 386.621452)scale(0.17 -0.17)">
       <defs>
        <path id="CMR17-31" d="M 1702 4083 
C 1702 4217 1696 4224 1606 4224 
C 1357 3927 979 3833 621 3820 
C 602 3820 570 3820 563 3808 
C 557 3795 557 3782 557 3648 
C 755 3648 1088 3686 1344 3839 
L 1344 467 
C 1344 243 1331 166 781 166 
L 589 166 
L 589 0 
C 896 6 1216 12 1523 12 
C 1830 12 2150 6 2458 0 
L 2458 166 
L 2266 166 
C 1715 166 1702 236 1702 467 
L 1702 4083 
z
" transform="scale(0.015625)"/>
       </defs>
       <use xlink:href="#CMR17-30" transform="scale(0.996264)"/>
       <use xlink:href="#CMMI12-3a" transform="translate(45.690477 0)scale(0.996264)"/>
       <use xlink:href="#CMR17-30" transform="translate(72.787654 0)scale(0.996264)"/>
       <use xlink:href="#CMR17-31" transform="translate(118.478131 0)scale(0.996264)"/>
      </g>
     </g>
    </g>
    <g id="xtick_3">
     <g id="line2d_5">
      <path d="M 616.728692 369.36 
L 616.728692 8.64 
" clip-path="url(#p5a5dbbaa35)" style="fill: none; stroke-dasharray: 0.4,0.66; stroke-dashoffset: 0; stroke: #b0b0b0; stroke-width: 0.4"/>
     </g>
     <g id="line2d_6">
      <g>
       <use xlink:href="#m74d1fbc885" x="616.728692" y="369.36" style="stroke: #000000; stroke-width: 0.8"/>
      </g>
     </g>
     <g id="text_3">
      <!-- $\mathdefault{0.02}$ -->
      <g transform="translate(602.77436 386.621452)scale(0.17 -0.17)">
       <defs>
        <path id="CMR17-32" d="M 2669 990 
L 2554 990 
C 2490 537 2438 460 2413 422 
C 2381 371 1920 371 1830 371 
L 602 371 
C 832 620 1280 1073 1824 1596 
C 2214 1966 2669 2400 2669 3033 
C 2669 3788 2067 4224 1395 4224 
C 691 4224 262 3603 262 3027 
C 262 2777 448 2745 525 2745 
C 589 2745 781 2783 781 3007 
C 781 3206 614 3264 525 3264 
C 486 3264 448 3257 422 3244 
C 544 3788 915 4057 1306 4057 
C 1862 4057 2227 3616 2227 3033 
C 2227 2477 1901 1998 1536 1583 
L 262 147 
L 262 0 
L 2515 0 
L 2669 990 
z
" transform="scale(0.015625)"/>
       </defs>
       <use xlink:href="#CMR17-30" transform="scale(0.996264)"/>
       <use xlink:href="#CMMI12-3a" transform="translate(45.690477 0)scale(0.996264)"/>
       <use xlink:href="#CMR17-30" transform="translate(72.787654 0)scale(0.996264)"/>
       <use xlink:href="#CMR17-32" transform="translate(118.478131 0)scale(0.996264)"/>
      </g>
     </g>
    </g>
    <g id="xtick_4">
     <g id="line2d_7">
      <path d="M 838.954856 369.36 
L 838.954856 8.64 
" clip-path="url(#p5a5dbbaa35)" style="fill: none; stroke-dasharray: 0.4,0.66; stroke-dashoffset: 0; stroke: #b0b0b0; stroke-width: 0.4"/>
     </g>
     <g id="line2d_8">
      <g>
       <use xlink:href="#m74d1fbc885" x="838.954856" y="369.36" style="stroke: #000000; stroke-width: 0.8"/>
      </g>
     </g>
     <g id="text_4">
      <!-- $\mathdefault{0.03}$ -->
      <g transform="translate(825.000524 386.621452)scale(0.17 -0.17)">
       <defs>
        <path id="CMR17-33" d="M 1414 2176 
C 1984 2176 2234 1673 2234 1094 
C 2234 322 1824 25 1453 25 
C 1114 25 563 193 390 691 
C 422 678 454 678 486 678 
C 640 678 755 780 755 947 
C 755 1132 614 1216 486 1216 
C 378 1216 211 1164 211 927 
C 211 335 787 -128 1466 -128 
C 2176 -128 2720 432 2720 1087 
C 2720 1718 2208 2176 1600 2246 
C 2086 2347 2554 2776 2554 3353 
C 2554 3856 2048 4224 1472 4224 
C 890 4224 378 3862 378 3347 
C 378 3123 544 3084 627 3084 
C 762 3084 877 3167 877 3334 
C 877 3500 762 3584 627 3584 
C 602 3584 570 3584 544 3571 
C 730 3999 1235 4076 1459 4076 
C 1683 4076 2106 3966 2106 3347 
C 2106 3167 2080 2851 1862 2574 
C 1670 2329 1453 2316 1242 2297 
C 1210 2297 1062 2284 1037 2284 
C 992 2278 966 2272 966 2227 
C 966 2182 973 2176 1101 2176 
L 1414 2176 
z
" transform="scale(0.015625)"/>
       </defs>
       <use xlink:href="#CMR17-30" transform="scale(0.996264)"/>
       <use xlink:href="#CMMI12-3a" transform="translate(45.690477 0)scale(0.996264)"/>
       <use xlink:href="#CMR17-30" transform="translate(72.787654 0)scale(0.996264)"/>
       <use xlink:href="#CMR17-33" transform="translate(118.478131 0)scale(0.996264)"/>
      </g>
     </g>
    </g>
    <g id="xtick_5">
     <g id="line2d_9">
      <path d="M 1061.18102 369.36 
L 1061.18102 8.64 
" clip-path="url(#p5a5dbbaa35)" style="fill: none; stroke-dasharray: 0.4,0.66; stroke-dashoffset: 0; stroke: #b0b0b0; stroke-width: 0.4"/>
     </g>
     <g id="line2d_10">
      <g>
       <use xlink:href="#m74d1fbc885" x="1061.18102" y="369.36" style="stroke: #000000; stroke-width: 0.8"/>
      </g>
     </g>
     <g id="text_5">
      <!-- $\mathdefault{0.04}$ -->
      <g transform="translate(1047.226688 386.621452)scale(0.17 -0.17)">
       <defs>
        <path id="CMR17-34" d="M 2150 4147 
C 2150 4281 2144 4288 2029 4288 
L 128 1254 
L 128 1088 
L 1779 1088 
L 1779 460 
C 1779 230 1766 166 1318 166 
L 1197 166 
L 1197 0 
C 1402 12 1747 12 1965 12 
C 2182 12 2528 12 2733 0 
L 2733 166 
L 2611 166 
C 2163 166 2150 230 2150 460 
L 2150 1088 
L 2803 1088 
L 2803 1254 
L 2150 1254 
L 2150 4147 
z
M 1798 3723 
L 1798 1254 
L 256 1254 
L 1798 3723 
z
" transform="scale(0.015625)"/>
       </defs>
       <use xlink:href="#CMR17-30" transform="scale(0.996264)"/>
       <use xlink:href="#CMMI12-3a" transform="translate(45.690477 0)scale(0.996264)"/>
       <use xlink:href="#CMR17-30" transform="translate(72.787654 0)scale(0.996264)"/>
       <use xlink:href="#CMR17-34" transform="translate(118.478131 0)scale(0.996264)"/>
      </g>
     </g>
    </g>
    <g id="text_6">
     <!-- Time (s) -->
     <g transform="translate(598.495893 403.602858)scale(0.17 -0.17)">
      <defs>
       <path id="CMR17-54" d="M 3981 4332 
L 288 4332 
L 179 2924 
L 294 2924 
C 378 3981 467 4166 1453 4166 
C 1568 4166 1754 4166 1805 4159 
C 1926 4140 1926 4064 1926 3917 
L 1926 465 
C 1926 236 1907 166 1376 166 
L 1197 166 
L 1197 0 
C 1504 6 1824 12 2138 12 
C 2451 12 2771 6 3078 0 
L 3078 166 
L 2899 166 
C 2368 166 2349 236 2349 465 
L 2349 3917 
C 2349 4057 2349 4134 2464 4159 
C 2515 4166 2701 4166 2816 4166 
C 3795 4166 3891 3981 3974 2924 
L 4090 2924 
L 3981 4332 
z
" transform="scale(0.015625)"/>
       <path id="CMR17-69" d="M 992 3961 
C 992 4102 877 4224 730 4224 
C 589 4224 467 4108 467 3961 
C 467 3820 582 3699 730 3699 
C 870 3699 992 3814 992 3961 
z
M 243 2745 
L 243 2579 
C 602 2579 653 2540 653 2231 
L 653 443 
C 653 198 627 166 218 166 
L 218 0 
C 371 12 646 12 806 12 
C 960 12 1222 12 1370 0 
L 1370 166 
C 992 166 979 205 979 436 
L 979 2816 
L 243 2745 
z
" transform="scale(0.015625)"/>
       <path id="CMR17-6d" d="M 4326 1954 
C 4326 2276 4269 2816 3507 2816 
C 3072 2816 2771 2520 2656 2173 
L 2650 2173 
C 2573 2700 2195 2816 1837 2816 
C 1331 2816 1069 2424 973 2166 
L 966 2166 
L 966 2816 
L 211 2745 
L 211 2578 
C 589 2578 646 2540 646 2231 
L 646 443 
C 646 198 621 166 211 166 
L 211 0 
C 365 12 646 12 813 12 
C 979 12 1267 12 1421 0 
L 1421 166 
C 1011 166 986 192 986 443 
L 986 1678 
C 986 2269 1344 2713 1792 2713 
C 2266 2713 2317 2289 2317 1980 
L 2317 443 
C 2317 198 2291 166 1882 166 
L 1882 0 
C 2035 12 2317 12 2483 12 
C 2650 12 2938 12 3091 0 
L 3091 166 
C 2682 166 2656 192 2656 443 
L 2656 1678 
C 2656 2269 3014 2713 3462 2713 
C 3936 2713 3987 2289 3987 1980 
L 3987 443 
C 3987 198 3962 166 3552 166 
L 3552 0 
C 3706 12 3987 12 4154 12 
C 4320 12 4608 12 4762 0 
L 4762 166 
C 4352 166 4326 192 4326 443 
L 4326 1954 
z
" transform="scale(0.015625)"/>
       <path id="CMR17-65" d="M 2438 1503 
C 2464 1529 2464 1542 2464 1606 
C 2464 2251 2118 2816 1389 2816 
C 710 2816 173 2175 173 1394 
C 173 554 781 -64 1459 -64 
C 2176 -64 2458 619 2458 755 
C 2458 800 2419 800 2406 800 
C 2362 800 2355 787 2330 709 
C 2189 270 1837 51 1504 51 
C 1229 51 954 206 781 490 
C 582 819 582 1200 582 1503 
L 2438 1503 
z
M 589 1600 
C 634 2511 1126 2713 1382 2713 
C 1818 2713 2112 2308 2118 1600 
L 589 1600 
z
" transform="scale(0.015625)"/>
       <path id="CMR17-28" d="M 1958 -1562 
C 1958 -1556 1958 -1543 1939 -1524 
C 1645 -1223 858 -403 858 1596 
C 858 3595 1632 4408 1946 4729 
C 1946 4735 1958 4748 1958 4767 
C 1958 4787 1939 4800 1914 4800 
C 1843 4800 1299 4325 986 3620 
C 666 2909 576 2218 576 1603 
C 576 1141 621 360 1005 -467 
C 1312 -1133 1837 -1600 1914 -1600 
C 1946 -1600 1958 -1588 1958 -1562 
z
" transform="scale(0.015625)"/>
       <path id="CMR17-73" d="M 1978 2688 
C 1978 2803 1971 2809 1933 2809 
C 1907 2809 1901 2803 1824 2707 
C 1805 2681 1747 2617 1728 2592 
C 1523 2809 1235 2816 1126 2816 
C 416 2816 160 2444 160 2073 
C 160 1497 813 1363 998 1324 
C 1402 1241 1542 1216 1677 1100 
C 1760 1024 1901 883 1901 652 
C 1901 384 1747 38 1158 38 
C 602 38 403 460 288 1024 
C 269 1113 269 1120 218 1120 
C 166 1120 160 1113 160 985 
L 160 64 
C 160 -52 166 -58 205 -58 
C 237 -58 243 -52 275 0 
C 314 57 410 211 448 275 
C 576 102 800 -64 1158 -64 
C 1792 -64 2131 281 2131 780 
C 2131 1107 1958 1280 1875 1356 
C 1683 1555 1459 1600 1190 1651 
C 838 1728 390 1817 390 2208 
C 390 2374 480 2726 1126 2726 
C 1811 2726 1850 2086 1862 1881 
C 1869 1849 1901 1843 1920 1843 
C 1978 1843 1978 1862 1978 1971 
L 1978 2688 
z
" transform="scale(0.015625)"/>
       <path id="CMR17-29" d="M 1683 1596 
C 1683 2057 1638 2839 1254 3665 
C 947 4332 422 4800 346 4800 
C 326 4800 301 4793 301 4761 
C 301 4748 307 4742 314 4729 
C 621 4408 1402 3595 1402 1603 
C 1402 -396 627 -1210 314 -1530 
C 307 -1543 301 -1549 301 -1562 
C 301 -1594 326 -1600 346 -1600 
C 416 -1600 960 -1127 1274 -422 
C 1594 289 1683 981 1683 1596 
z
" transform="scale(0.015625)"/>
      </defs>
      <use xlink:href="#CMR17-54" transform="scale(0.996264)"/>
      <use xlink:href="#CMR17-69" transform="translate(66.509881 0)scale(0.996264)"/>
      <use xlink:href="#CMR17-6d" transform="translate(91.380939 0)scale(0.996264)"/>
      <use xlink:href="#CMR17-65" transform="translate(168.300529 0)scale(0.996264)"/>
      <use xlink:href="#CMR17-28" transform="translate(238.862156 0)scale(0.996264)"/>
      <use xlink:href="#CMR17-73" transform="translate(274.142924 0)scale(0.996264)"/>
      <use xlink:href="#CMR17-29" transform="translate(309.944261 0)scale(0.996264)"/>
     </g>
    </g>
   </g>
   <g id="matplotlib.axis_2">
    <g id="ytick_1">
     <g id="line2d_11">
      <path d="M 126.72 363.757767 
L 1128.96 363.757767 
" clip-path="url(#p5a5dbbaa35)" style="fill: none; stroke-dasharray: 0.4,0.66; stroke-dashoffset: 0; stroke: #b0b0b0; stroke-width: 0.4"/>
     </g>
     <g id="line2d_12">
      <defs>
       <path id="m8c332fcafd" d="M 0 0 
L -3.5 0 
" style="stroke: #000000; stroke-width: 0.8"/>
      </defs>
      <g>
       <use xlink:href="#m8c332fcafd" x="126.72" y="363.757767" style="stroke: #000000; stroke-width: 0.8"/>
      </g>
     </g>
     <g id="text_7">
      <!-- $\mathdefault{−3}$ -->
      <g transform="translate(100.279758 369.638493)scale(0.17 -0.17)">
       <defs>
        <path id="CMSY10-0" d="M 4218 1472 
C 4326 1472 4442 1472 4442 1600 
C 4442 1728 4326 1728 4218 1728 
L 755 1728 
C 646 1728 531 1728 531 1600 
C 531 1472 646 1472 755 1472 
L 4218 1472 
z
" transform="scale(0.015625)"/>
       </defs>
       <use xlink:href="#CMSY10-0" transform="scale(0.996264)"/>
       <use xlink:href="#CMR17-33" transform="translate(77.487468 0)scale(0.996264)"/>
      </g>
     </g>
    </g>
    <g id="ytick_2">
     <g id="line2d_13">
      <path d="M 126.72 305.70892 
L 1128.96 305.70892 
" clip-path="url(#p5a5dbbaa35)" style="fill: none; stroke-dasharray: 0.4,0.66; stroke-dashoffset: 0; stroke: #b0b0b0; stroke-width: 0.4"/>
     </g>
     <g id="line2d_14">
      <g>
       <use xlink:href="#m8c332fcafd" x="126.72" y="305.70892" style="stroke: #000000; stroke-width: 0.8"/>
      </g>
     </g>
     <g id="text_8">
      <!-- $\mathdefault{−2}$ -->
      <g transform="translate(100.279758 311.589646)scale(0.17 -0.17)">
       <use xlink:href="#CMSY10-0" transform="scale(0.996264)"/>
       <use xlink:href="#CMR17-32" transform="translate(77.487468 0)scale(0.996264)"/>
      </g>
     </g>
    </g>
    <g id="ytick_3">
     <g id="line2d_15">
      <path d="M 126.72 247.660073 
L 1128.96 247.660073 
" clip-path="url(#p5a5dbbaa35)" style="fill: none; stroke-dasharray: 0.4,0.66; stroke-dashoffset: 0; stroke: #b0b0b0; stroke-width: 0.4"/>
     </g>
     <g id="line2d_16">
      <g>
       <use xlink:href="#m8c332fcafd" x="126.72" y="247.660073" style="stroke: #000000; stroke-width: 0.8"/>
      </g>
     </g>
     <g id="text_9">
      <!-- $\mathdefault{−1}$ -->
      <g transform="translate(100.279758 253.540799)scale(0.17 -0.17)">
       <use xlink:href="#CMSY10-0" transform="scale(0.996264)"/>
       <use xlink:href="#CMR17-31" transform="translate(77.487468 0)scale(0.996264)"/>
      </g>
     </g>
    </g>
    <g id="ytick_4">
     <g id="line2d_17">
      <path d="M 126.72 189.611225 
L 1128.96 189.611225 
" clip-path="url(#p5a5dbbaa35)" style="fill: none; stroke-dasharray: 0.4,0.66; stroke-dashoffset: 0; stroke: #b0b0b0; stroke-width: 0.4"/>
     </g>
     <g id="line2d_18">
      <g>
       <use xlink:href="#m8c332fcafd" x="126.72" y="189.611225" style="stroke: #000000; stroke-width: 0.8"/>
      </g>
     </g>
     <g id="text_10">
      <!-- $\mathdefault{0}$ -->
      <g transform="translate(113.452619 195.491951)scale(0.17 -0.17)">
       <use xlink:href="#CMR17-30" transform="scale(0.996264)"/>
      </g>
     </g>
    </g>
    <g id="ytick_5">
     <g id="line2d_19">
      <path d="M 126.72 131.562378 
L 1128.96 131.562378 
" clip-path="url(#p5a5dbbaa35)" style="fill: none; stroke-dasharray: 0.4,0.66; stroke-dashoffset: 0; stroke: #b0b0b0; stroke-width: 0.4"/>
     </g>
     <g id="line2d_20">
      <g>
       <use xlink:href="#m8c332fcafd" x="126.72" y="131.562378" style="stroke: #000000; stroke-width: 0.8"/>
      </g>
     </g>
     <g id="text_11">
      <!-- $\mathdefault{1}$ -->
      <g transform="translate(113.452619 137.443104)scale(0.17 -0.17)">
       <use xlink:href="#CMR17-31" transform="scale(0.996264)"/>
      </g>
     </g>
    </g>
    <g id="ytick_6">
     <g id="line2d_21">
      <path d="M 126.72 73.513531 
L 1128.96 73.513531 
" clip-path="url(#p5a5dbbaa35)" style="fill: none; stroke-dasharray: 0.4,0.66; stroke-dashoffset: 0; stroke: #b0b0b0; stroke-width: 0.4"/>
     </g>
     <g id="line2d_22">
      <g>
       <use xlink:href="#m8c332fcafd" x="126.72" y="73.513531" style="stroke: #000000; stroke-width: 0.8"/>
      </g>
     </g>
     <g id="text_12">
      <!-- $\mathdefault{2}$ -->
      <g transform="translate(113.452619 79.394257)scale(0.17 -0.17)">
       <use xlink:href="#CMR17-32" transform="scale(0.996264)"/>
      </g>
     </g>
    </g>
    <g id="ytick_7">
     <g id="line2d_23">
      <path d="M 126.72 15.464683 
L 1128.96 15.464683 
" clip-path="url(#p5a5dbbaa35)" style="fill: none; stroke-dasharray: 0.4,0.66; stroke-dashoffset: 0; stroke: #b0b0b0; stroke-width: 0.4"/>
     </g>
     <g id="line2d_24">
      <g>
       <use xlink:href="#m8c332fcafd" x="126.72" y="15.464683" style="stroke: #000000; stroke-width: 0.8"/>
      </g>
     </g>
     <g id="text_13">
      <!-- $\mathdefault{3}$ -->
      <g transform="translate(113.452619 21.345409)scale(0.17 -0.17)">
       <use xlink:href="#CMR17-33" transform="scale(0.996264)"/>
      </g>
     </g>
    </g>
    <g id="text_14">
     <!-- Acceleration $(m^2/s)$ -->
     <g transform="translate(95.045636 258.027106)rotate(-90)scale(0.17 -0.17)">
      <defs>
       <path id="CMR17-41" d="M 2323 4441 
C 2291 4524 2278 4544 2214 4544 
C 2150 4544 2138 4524 2106 4441 
L 749 580 
C 627 236 371 166 147 166 
L 147 0 
C 262 12 518 12 640 12 
C 800 12 1056 12 1210 0 
L 1210 166 
C 909 179 864 382 864 459 
C 864 516 877 548 890 586 
L 1229 1536 
L 2906 1536 
L 3290 453 
C 3322 376 3322 363 3322 338 
C 3322 166 3046 166 2925 166 
L 2925 0 
C 3110 12 3443 12 3642 12 
C 3808 12 4128 12 4282 0 
L 4282 166 
C 3942 166 3827 166 3744 402 
L 2323 4441 
z
M 2067 3924 
L 2848 1702 
L 1286 1702 
L 2067 3924 
z
" transform="scale(0.015625)"/>
       <path id="CMR17-63" d="M 2234 2240 
C 2112 2240 1933 2240 1933 2015 
C 1933 1836 2080 1785 2163 1785 
C 2208 1785 2394 1804 2394 2028 
C 2394 2476 1958 2816 1466 2816 
C 787 2816 211 2201 211 1379 
C 211 521 813 -64 1466 -64 
C 2259 -64 2458 676 2458 747 
C 2458 773 2451 792 2406 792 
C 2362 792 2355 786 2330 702 
C 2163 180 1798 51 1523 51 
C 1114 51 621 431 621 1385 
C 621 2358 1094 2700 1472 2700 
C 1722 2700 2093 2582 2234 2240 
z
" transform="scale(0.015625)"/>
       <path id="CMR17-6c" d="M 979 4416 
L 218 4345 
L 218 4179 
C 595 4179 653 4141 653 3835 
L 653 439 
C 653 198 627 166 218 166 
L 218 0 
C 371 12 653 12 813 12 
C 979 12 1261 12 1414 0 
L 1414 166 
C 1005 166 979 191 979 439 
L 979 4416 
z
" transform="scale(0.015625)"/>
       <path id="CMR17-72" d="M 960 1517 
C 960 2134 1222 2713 1702 2713 
C 1747 2713 1792 2707 1837 2687 
C 1837 2687 1696 2642 1696 2475 
C 1696 2321 1818 2257 1914 2257 
C 1990 2257 2131 2302 2131 2482 
C 2131 2687 1926 2816 1709 2816 
C 1222 2816 1011 2340 947 2115 
L 941 2115 
L 941 2816 
L 198 2745 
L 198 2578 
C 576 2578 634 2540 634 2231 
L 634 443 
C 634 198 608 166 198 166 
L 198 0 
C 352 12 646 12 813 12 
C 998 12 1325 12 1498 0 
L 1498 166 
C 1037 166 960 166 960 455 
L 960 1517 
z
" transform="scale(0.015625)"/>
       <path id="CMR17-61" d="M 2304 1656 
C 2304 2048 2304 2275 2035 2534 
C 1798 2751 1523 2816 1306 2816 
C 800 2816 435 2408 435 1977 
C 435 1740 627 1728 666 1728 
C 749 1728 896 1779 896 1958 
C 896 2118 774 2188 666 2188 
C 640 2188 608 2182 589 2176 
C 723 2594 1069 2713 1293 2713 
C 1613 2713 1965 2421 1965 1875 
L 1965 1632 
C 1587 1619 1133 1568 774 1373 
C 371 1147 256 822 256 576 
C 256 77 832 -64 1171 -64 
C 1523 -64 1850 135 1990 505 
C 2003 219 2182 -39 2464 -39 
C 2598 -39 2938 51 2938 563 
L 2938 926 
L 2822 926 
L 2822 557 
C 2822 161 2650 109 2566 109 
C 2304 109 2304 446 2304 732 
L 2304 1656 
z
M 1965 887 
C 1965 323 1568 38 1216 38 
C 896 38 646 278 646 576 
C 646 771 730 1114 1101 1322 
C 1408 1497 1760 1523 1965 1536 
L 1965 887 
z
" transform="scale(0.015625)"/>
       <path id="CMR17-74" d="M 966 2585 
L 1862 2585 
L 1862 2752 
L 966 2752 
L 966 3968 
L 851 3968 
C 838 3292 614 2700 70 2687 
L 70 2585 
L 627 2585 
L 627 778 
C 627 655 627 -64 1370 -64 
C 1747 -64 1965 308 1965 784 
L 1965 1151 
L 1850 1151 
L 1850 790 
C 1850 347 1677 51 1408 51 
C 1222 51 966 179 966 765 
L 966 2585 
z
" transform="scale(0.015625)"/>
       <path id="CMR17-6f" d="M 2758 1356 
C 2758 2176 2163 2816 1466 2816 
C 768 2816 173 2176 173 1356 
C 173 550 768 -64 1466 -64 
C 2163 -64 2758 550 2758 1356 
z
M 1466 51 
C 1165 51 909 230 762 480 
C 602 768 582 1126 582 1408 
C 582 1676 595 2009 762 2297 
C 890 2508 1139 2713 1466 2713 
C 1754 2713 1997 2553 2150 2329 
C 2349 2028 2349 1606 2349 1408 
C 2349 1158 2336 774 2163 467 
C 1984 172 1709 51 1466 51 
z
" transform="scale(0.015625)"/>
       <path id="CMR17-6e" d="M 2656 1954 
C 2656 2282 2592 2816 1837 2816 
C 1331 2816 1069 2424 973 2166 
L 966 2166 
L 966 2816 
L 211 2745 
L 211 2578 
C 589 2578 646 2540 646 2231 
L 646 443 
C 646 198 621 166 211 166 
L 211 0 
C 365 12 646 12 813 12 
C 979 12 1267 12 1421 0 
L 1421 166 
C 1011 166 986 192 986 443 
L 986 1678 
C 986 2269 1344 2713 1792 2713 
C 2266 2713 2317 2289 2317 1980 
L 2317 443 
C 2317 198 2291 166 1882 166 
L 1882 0 
C 2035 12 2317 12 2483 12 
C 2650 12 2938 12 3091 0 
L 3091 166 
C 2682 166 2656 192 2656 443 
L 2656 1954 
z
" transform="scale(0.015625)"/>
       <path id="CMMI12-6d" d="M 1318 1870 
C 1331 1909 1491 2228 1728 2432 
C 1894 2585 2112 2687 2362 2687 
C 2618 2687 2707 2496 2707 2241 
C 2707 2202 2707 2075 2630 1775 
L 2470 1117 
C 2419 925 2298 453 2285 383 
C 2259 287 2221 121 2221 95 
C 2221 6 2291 -64 2387 -64 
C 2579 -64 2611 83 2669 313 
L 3053 1838 
C 3066 1890 3398 2687 4102 2687 
C 4358 2687 4448 2496 4448 2241 
C 4448 1883 4198 1187 4058 804 
C 4000 651 3968 568 3968 453 
C 3968 166 4166 -64 4474 -64 
C 5069 -64 5293 874 5293 913 
C 5293 945 5267 970 5229 970 
C 5171 970 5165 951 5133 842 
C 4986 332 4749 64 4493 64 
C 4429 64 4326 70 4326 274 
C 4326 440 4403 645 4429 715 
C 4544 1021 4832 1775 4832 2145 
C 4832 2528 4608 2816 4122 2816 
C 3693 2816 3347 2573 3091 2196 
C 3072 2541 2861 2816 2381 2816 
C 1811 2816 1510 2413 1395 2253 
C 1376 2617 1114 2816 832 2816 
C 646 2816 499 2726 378 2483 
C 262 2253 173 1864 173 1838 
C 173 1813 198 1781 243 1781 
C 294 1781 301 1787 339 1934 
C 435 2311 557 2687 813 2687 
C 960 2687 1011 2585 1011 2394 
C 1011 2253 947 2004 902 1807 
L 723 1117 
C 698 996 627 708 595 593 
C 550 427 480 127 480 95 
C 480 6 550 -64 646 -64 
C 723 -64 813 -26 864 70 
C 877 102 934 325 966 453 
L 1107 1028 
L 1318 1870 
z
" transform="scale(0.015625)"/>
       <path id="CMMI12-3d" d="M 2746 4563 
C 2746 4569 2784 4665 2784 4678 
C 2784 4755 2720 4800 2669 4800 
C 2637 4800 2579 4800 2528 4659 
L 384 -1364 
C 384 -1370 346 -1466 346 -1479 
C 346 -1556 410 -1600 461 -1600 
C 499 -1600 557 -1594 602 -1460 
L 2746 4563 
z
" transform="scale(0.015625)"/>
       <path id="CMMI12-73" d="M 1459 1290 
C 1568 1271 1741 1233 1779 1227 
C 1862 1201 2150 1099 2150 793 
C 2150 595 1971 64 1229 64 
C 1094 64 614 83 486 447 
C 742 414 870 614 870 755 
C 870 889 781 960 653 960 
C 512 960 326 851 326 563 
C 326 176 710 -64 1222 -64 
C 2195 -64 2483 665 2483 998 
C 2483 1093 2483 1271 2278 1475 
C 2118 1627 1965 1659 1619 1729 
C 1446 1767 1171 1824 1171 2111 
C 1171 2239 1286 2687 1894 2687 
C 2163 2687 2426 2589 2490 2368 
C 2208 2368 2195 2124 2195 2118 
C 2195 1983 2317 1945 2374 1945 
C 2464 1945 2643 2015 2643 2284 
C 2643 2546 2400 2816 1901 2816 
C 1062 2816 838 2169 838 1907 
C 838 1424 1312 1322 1459 1290 
z
" transform="scale(0.015625)"/>
      </defs>
      <use xlink:href="#CMR17-41" transform="scale(0.996264)"/>
      <use xlink:href="#CMR17-63" transform="translate(69.07243 0)scale(0.996264)"/>
      <use xlink:href="#CMR17-63" transform="translate(109.55809 0)scale(0.996264)"/>
      <use xlink:href="#CMR17-65" transform="translate(150.043751 0)scale(0.996264)"/>
      <use xlink:href="#CMR17-6c" transform="translate(190.529411 0)scale(0.996264)"/>
      <use xlink:href="#CMR17-65" transform="translate(215.40047 0)scale(0.996264)"/>
      <use xlink:href="#CMR17-72" transform="translate(255.88613 0)scale(0.996264)"/>
      <use xlink:href="#CMR17-61" transform="translate(291.166898 0)scale(0.996264)"/>
      <use xlink:href="#CMR17-74" transform="translate(336.857375 0)scale(0.996264)"/>
      <use xlink:href="#CMR17-69" transform="translate(372.138143 0)scale(0.996264)"/>
      <use xlink:href="#CMR17-6f" transform="translate(397.009201 0)scale(0.996264)"/>
      <use xlink:href="#CMR17-6e" transform="translate(442.699678 0)scale(0.996264)"/>
      <use xlink:href="#CMR17-28" transform="translate(523.671015 0)scale(0.996264)"/>
      <use xlink:href="#CMMI12-6d" transform="translate(558.951782 0)scale(0.996264)"/>
      <use xlink:href="#CMR17-32" transform="translate(644.279007 36.153639)scale(0.697382)"/>
      <use xlink:href="#CMMI12-3d" transform="translate(676.760321 0)scale(0.996264)"/>
      <use xlink:href="#CMMI12-73" transform="translate(725.53524 0)scale(0.996264)"/>
      <use xlink:href="#CMR17-29" transform="translate(771.485287 0)scale(0.996264)"/>
     </g>
    </g>
   </g>
   <g id="line2d_25">
    <path d="M 172.276364 182.877755 
L 182.498767 276.04564 
L 192.943397 343.70589 
L 203.1658 344.669634 
L 213.388204 289.963077 
L 223.610608 210.404292 
L 233.833011 118.193432 
L 244.055415 43.378424 
L 254.277818 26.384136 
L 264.500222 73.659796 
L 274.722625 151.696613 
L 284.945029 243.389467 
L 295.167432 324.068963 
L 305.389836 352.78967 
L 315.612239 314.400597 
L 325.834643 241.34131 
L 336.057047 149.861124 
L 346.27945 65.819237 
L 356.72408 25.036364 
L 366.946483 51.869594 
L 377.168887 120.356431 
L 387.39129 210.405053 
L 397.613694 299.927528 
L 407.836098 350.899083 
L 418.058501 332.90304 
L 428.280905 270.272728 
L 438.503308 184.380915 
L 448.725712 92.834376 
L 458.948115 31.050375 
L 469.170519 35.341474 
L 479.392922 93.820208 
L 489.615326 177.035088 
L 499.837729 269.334647 
L 510.282359 340.447034 
L 520.504763 347.210102 
L 530.727166 294.989272 
L 540.94957 216.409132 
L 551.171973 124.308153 
L 561.394377 47.932298 
L 571.61678 25.742127 
L 581.839184 68.891438 
L 592.061588 145.014898 
L 602.283991 237.105796 
L 612.506395 319.695964 
L 622.728798 352.922033 
L 632.951202 318.369792 
L 643.173605 247.325188 
L 653.396009 156.834452 
L 663.618412 70.551153 
L 674.063042 25.061232 
L 684.285446 48.215547 
L 694.507849 114.950046 
L 704.730253 203.200503 
L 714.952656 293.805249 
L 725.17506 349.987193 
L 735.397463 336.298637 
L 745.619867 275.001161 
L 755.842271 190.561761 
L 766.064674 99.040268 
L 776.287078 33.86229 
L 786.509481 32.801482 
L 796.731885 88.941719 
L 806.954288 171.141022 
L 817.176692 262.909435 
L 827.399095 336.035101 
L 837.843725 349.325744 
L 848.066129 300.852942 
L 858.288532 222.657946 
L 868.510936 130.061159 
L 878.733339 51.682462 
L 888.955743 25.339065 
L 899.178146 63.900375 
L 909.40055 138.383152 
L 919.622953 230.938912 
L 929.845357 315.837532 
L 940.067761 352.963636 
L 950.290164 321.531039 
L 960.512568 253.252847 
L 970.734971 164.189476 
L 980.957375 75.620675 
L 991.402004 25.606688 
L 1001.624408 44.811981 
L 1011.846812 110.459126 
L 1022.069215 197.066551 
L 1032.291619 287.447113 
L 1042.514022 348.017967 
L 1052.736426 340.209596 
L 1062.958829 279.922287 
L 1073.181233 196.077515 
L 1083.403636 105.321536 
" clip-path="url(#p5a5dbbaa35)" style="fill: none; stroke: #ff0000; stroke-width: 2; stroke-linecap: square"/>
   </g>
   <g id="line2d_26">
    <path d="M 172.276364 186.00969 
L 182.498767 107.698735 
L 192.943397 58.371216 
L 203.1658 55.607191 
L 213.388204 100.961626 
L 223.610608 178.20819 
L 233.833011 261.101626 
L 244.055415 317.7393 
L 254.277818 328.151365 
L 264.500222 290.020261 
L 274.722625 216.071378 
L 284.945029 133.493279 
L 295.167432 71.250107 
L 305.389836 50.623901 
L 315.612239 80.045077 
L 325.834643 148.457046 
L 336.057047 232.970205 
L 346.27945 302.233274 
L 356.72408 330.210085 
L 366.946483 308.670514 
L 377.168887 244.944164 
L 387.39129 161.969504 
L 397.613694 89.636917 
L 407.836098 52.27492 
L 418.058501 64.05735 
L 428.280905 120.889784 
L 438.503308 202.847386 
L 448.725712 281.323058 
L 458.948115 325.818689 
L 469.170519 321.8861 
L 479.392922 271.477039 
L 489.615326 191.850404 
L 499.837729 112.448239 
L 510.282359 60.410571 
L 520.504763 54.010627 
L 530.727166 96.532435 
L 540.94957 172.350441 
L 551.171973 255.861696 
L 561.394377 315.199192 
L 571.61678 329.033841 
L 581.839184 294.059097 
L 592.061588 221.813621 
L 602.283991 138.899257 
L 612.506395 74.40151 
L 622.728798 50.386464 
L 632.951202 76.575079 
L 643.173605 142.89058 
L 653.396009 227.218436 
L 663.618412 298.565452 
L 674.063042 329.865646 
L 684.285446 311.741095 
L 694.507849 250.404251 
L 704.730253 167.694713 
L 714.952656 93.705729 
L 725.17506 53.312793 
L 735.397463 61.701571 
L 745.619867 115.85681 
L 755.842271 196.878005 
L 766.064674 276.674936 
L 776.287078 324.206684 
L 786.509481 323.731531 
L 796.731885 276.264153 
L 806.954288 197.726792 
L 817.176692 117.317081 
L 827.399095 62.533046 
L 837.843725 52.743345 
L 848.066129 92.301249 
L 858.288532 166.48122 
L 868.510936 250.511386 
L 878.733339 312.385048 
L 888.955743 329.580353 
L 899.178146 297.864855 
L 909.40055 227.461534 
L 919.622953 144.464792 
L 929.845357 77.877724 
L 940.067761 50.320723 
L 950.290164 73.193885 
L 960.512568 137.420482 
L 970.734971 221.392763 
L 980.957375 294.704432 
L 991.402004 329.202687 
L 1001.624408 314.530638 
L 1011.846812 255.738406 
L 1022.069215 173.478971 
L 1032.291619 98.026224 
L 1042.514022 54.720007 
L 1052.736426 59.50426 
L 1062.958829 110.981804 
L 1073.181233 190.932944 
L 1083.403636 271.874743 
" clip-path="url(#p5a5dbbaa35)" style="fill: none; stroke-dasharray: 37,16; stroke-dashoffset: 0; stroke: #00ffff; stroke-opacity: 0.5; stroke-width: 10"/>
   </g>
   <g id="patch_3">
    <path d="M 126.72 369.36 
L 126.72 8.64 
" style="fill: none; stroke: #000000; stroke-width: 0.8; stroke-linejoin: miter; stroke-linecap: square"/>
   </g>
   <g id="patch_4">
    <path d="M 1128.96 369.36 
L 1128.96 8.64 
" style="fill: none; stroke: #000000; stroke-width: 0.8; stroke-linejoin: miter; stroke-linecap: square"/>
   </g>
   <g id="patch_5">
    <path d="M 126.72 369.36 
L 1128.96 369.36 
" style="fill: none; stroke: #000000; stroke-width: 0.8; stroke-linejoin: miter; stroke-linecap: square"/>
   </g>
   <g id="patch_6">
    <path d="M 126.72 8.64 
L 1128.96 8.64 
" style="fill: none; stroke: #000000; stroke-width: 0.8; stroke-linejoin: miter; stroke-linecap: square"/>
   </g>
   <g id="text_15">
    <!-- Time-Acceleration $\&amp;$ Time-Velocity -->
    <g transform="translate(482.548433 2.64)scale(0.204 -0.204)">
     <defs>
      <path id="CMR17-2d" d="M 1632 1254 
L 1632 1536 
L 26 1536 
L 26 1254 
L 1632 1254 
z
" transform="scale(0.015625)"/>
      <path id="CMR17-26" d="M 429 1357 
C 288 1195 211 1014 211 801 
C 211 271 704 -128 1306 -128 
C 1907 -128 2291 245 2419 368 
C 2592 206 2944 -128 3456 -128 
C 3910 -128 4294 219 4307 756 
L 4192 756 
C 4179 251 3763 38 3482 38 
C 3104 38 2790 419 2637 600 
C 2758 749 2963 1001 3386 1770 
C 3507 1984 3686 2307 3782 2391 
C 3872 2469 4019 2579 4339 2585 
L 4339 2752 
C 4218 2739 3949 2739 3821 2739 
C 3629 2739 3328 2739 3142 2752 
L 3142 2585 
C 3354 2585 3526 2495 3526 2320 
C 3526 2217 3379 1964 3104 1499 
C 3008 1331 2784 949 2560 697 
C 2464 820 1830 1641 1517 2475 
C 2176 3270 2246 3558 2246 3763 
C 2246 4019 2163 4544 1747 4544 
C 1370 4544 979 4198 979 3577 
C 979 3251 1030 2848 1222 2288 
L 429 1357 
z
M 1478 2598 
C 1357 2931 1286 3353 1286 3699 
C 1286 4262 1549 4441 1754 4441 
C 2112 4441 2131 3865 2131 3769 
C 2131 3545 2016 3225 1478 2598 
z
M 1267 2178 
C 1581 1460 2035 807 2336 458 
C 2022 161 1677 38 1363 38 
C 845 38 621 574 621 995 
C 621 1260 704 1525 870 1719 
L 1267 2178 
z
" transform="scale(0.015625)"/>
      <path id="CMR17-56" d="M 3776 3762 
C 3834 3903 3936 4179 4365 4185 
L 4365 4352 
C 4218 4339 4051 4339 3891 4339 
C 3738 4339 3475 4339 3328 4352 
L 3328 4185 
C 3648 4166 3661 3942 3661 3903 
C 3661 3833 3642 3788 3622 3737 
L 2362 448 
L 1043 3903 
C 1024 3948 1011 3980 1011 4012 
C 1011 4185 1267 4185 1402 4185 
L 1402 4352 
C 1197 4339 896 4339 685 4339 
C 518 4339 218 4339 64 4352 
L 64 4185 
C 435 4185 506 4160 582 3955 
L 2106 -26 
C 2138 -116 2144 -128 2214 -128 
C 2285 -128 2291 -116 2323 -26 
L 3776 3762 
z
" transform="scale(0.015625)"/>
      <path id="CMR17-79" d="M 2496 2183 
C 2656 2579 2944 2585 3034 2585 
L 3034 2752 
C 2912 2745 2752 2739 2630 2739 
C 2496 2739 2285 2739 2157 2752 
L 2157 2585 
C 2400 2566 2406 2384 2406 2332 
C 2406 2268 2394 2235 2362 2158 
L 1664 409 
L 902 2300 
C 870 2378 870 2423 870 2430 
C 870 2572 1018 2585 1171 2585 
L 1171 2752 
C 1018 2739 742 2739 582 2739 
C 410 2739 205 2739 64 2752 
L 64 2585 
C 410 2585 448 2553 531 2345 
L 1485 -31 
C 1197 -795 1030 -1242 627 -1242 
C 557 -1242 397 -1223 282 -1106 
C 429 -1093 493 -1002 493 -892 
C 493 -782 416 -685 288 -685 
C 147 -685 77 -782 77 -899 
C 77 -1158 339 -1344 627 -1344 
C 998 -1344 1229 -983 1357 -659 
L 2496 2183 
z
" transform="scale(0.015625)"/>
     </defs>
     <use xlink:href="#CMR17-54" transform="scale(0.996264)"/>
     <use xlink:href="#CMR17-69" transform="translate(66.509881 0)scale(0.996264)"/>
     <use xlink:href="#CMR17-6d" transform="translate(91.380939 0)scale(0.996264)"/>
     <use xlink:href="#CMR17-65" transform="translate(168.300529 0)scale(0.996264)"/>
     <use xlink:href="#CMR17-2d" transform="translate(208.786189 0)scale(0.996264)"/>
     <use xlink:href="#CMR17-41" transform="translate(238.862156 0)scale(0.996264)"/>
     <use xlink:href="#CMR17-63" transform="translate(307.934586 0)scale(0.996264)"/>
     <use xlink:href="#CMR17-63" transform="translate(348.420246 0)scale(0.996264)"/>
     <use xlink:href="#CMR17-65" transform="translate(388.905906 0)scale(0.996264)"/>
     <use xlink:href="#CMR17-6c" transform="translate(429.391567 0)scale(0.996264)"/>
     <use xlink:href="#CMR17-65" transform="translate(454.262625 0)scale(0.996264)"/>
     <use xlink:href="#CMR17-72" transform="translate(494.748286 0)scale(0.996264)"/>
     <use xlink:href="#CMR17-61" transform="translate(530.029054 0)scale(0.996264)"/>
     <use xlink:href="#CMR17-74" transform="translate(575.719531 0)scale(0.996264)"/>
     <use xlink:href="#CMR17-69" transform="translate(611.000299 0)scale(0.996264)"/>
     <use xlink:href="#CMR17-6f" transform="translate(635.871357 0)scale(0.996264)"/>
     <use xlink:href="#CMR17-6e" transform="translate(681.561834 0)scale(0.996264)"/>
     <use xlink:href="#CMR17-26" transform="translate(762.53317 0)scale(0.996264)"/>
     <use xlink:href="#CMR17-54" transform="translate(864.323925 0)scale(0.996264)"/>
     <use xlink:href="#CMR17-69" transform="translate(930.833806 0)scale(0.996264)"/>
     <use xlink:href="#CMR17-6d" transform="translate(955.704864 0)scale(0.996264)"/>
     <use xlink:href="#CMR17-65" transform="translate(1032.624454 0)scale(0.996264)"/>
     <use xlink:href="#CMR17-2d" transform="translate(1073.110114 0)scale(0.996264)"/>
     <use xlink:href="#CMR17-56" transform="translate(1103.186081 0)scale(0.996264)"/>
     <use xlink:href="#CMR17-65" transform="translate(1164.451255 0)scale(0.996264)"/>
     <use xlink:href="#CMR17-6c" transform="translate(1204.936916 0)scale(0.996264)"/>
     <use xlink:href="#CMR17-6f" transform="translate(1229.807974 0)scale(0.996264)"/>
     <use xlink:href="#CMR17-63" transform="translate(1278.10089 0)scale(0.996264)"/>
     <use xlink:href="#CMR17-69" transform="translate(1318.58655 0)scale(0.996264)"/>
     <use xlink:href="#CMR17-74" transform="translate(1343.457609 0)scale(0.996264)"/>
     <use xlink:href="#CMR17-79" transform="translate(1376.135923 0)scale(0.996264)"/>
    </g>
   </g>
   <g id="legend_1">
    <g id="patch_7">
     <path d="M 968.505578 48.112845 
L 1127.5439 48.112845 
L 1127.5439 10.0561 
L 968.505578 10.0561 
z
" style="fill: #ffffff; opacity: 0.8"/>
    </g>
    <g id="line2d_27">
     <path d="M 972.753878 19.26075 
L 986.914878 19.26075 
L 1001.075878 19.26075 
" style="fill: none; stroke: #ff0000; stroke-width: 2; stroke-linecap: square"/>
    </g>
    <g id="text_16">
     <!-- Time-Acceleration -->
     <g transform="translate(1012.404678 24.2171)scale(0.14161 -0.14161)">
      <use xlink:href="#CMR17-54" transform="scale(0.996264)"/>
      <use xlink:href="#CMR17-69" transform="translate(66.509881 0)scale(0.996264)"/>
      <use xlink:href="#CMR17-6d" transform="translate(91.380939 0)scale(0.996264)"/>
      <use xlink:href="#CMR17-65" transform="translate(168.300529 0)scale(0.996264)"/>
      <use xlink:href="#CMR17-2d" transform="translate(208.786189 0)scale(0.996264)"/>
      <use xlink:href="#CMR17-41" transform="translate(238.862156 0)scale(0.996264)"/>
      <use xlink:href="#CMR17-63" transform="translate(307.934586 0)scale(0.996264)"/>
      <use xlink:href="#CMR17-63" transform="translate(348.420246 0)scale(0.996264)"/>
      <use xlink:href="#CMR17-65" transform="translate(388.905906 0)scale(0.996264)"/>
      <use xlink:href="#CMR17-6c" transform="translate(429.391567 0)scale(0.996264)"/>
      <use xlink:href="#CMR17-65" transform="translate(454.262625 0)scale(0.996264)"/>
      <use xlink:href="#CMR17-72" transform="translate(494.748286 0)scale(0.996264)"/>
      <use xlink:href="#CMR17-61" transform="translate(530.029054 0)scale(0.996264)"/>
      <use xlink:href="#CMR17-74" transform="translate(575.719531 0)scale(0.996264)"/>
      <use xlink:href="#CMR17-69" transform="translate(611.000299 0)scale(0.996264)"/>
      <use xlink:href="#CMR17-6f" transform="translate(635.871357 0)scale(0.996264)"/>
      <use xlink:href="#CMR17-6e" transform="translate(681.561834 0)scale(0.996264)"/>
     </g>
    </g>
    <g id="line2d_28">
     <path d="M 972.753878 36.164972 
L 986.914878 36.164972 
L 1001.075878 36.164972 
" style="fill: none; stroke-dasharray: 37,16; stroke-dashoffset: 0; stroke: #00ffff; stroke-opacity: 0.5; stroke-width: 10"/>
    </g>
    <g id="text_17">
     <!-- Time-Velocity -->
     <g transform="translate(1012.404678 41.121322)scale(0.14161 -0.14161)">
      <use xlink:href="#CMR17-54" transform="scale(0.996264)"/>
      <use xlink:href="#CMR17-69" transform="translate(66.509881 0)scale(0.996264)"/>
      <use xlink:href="#CMR17-6d" transform="translate(91.380939 0)scale(0.996264)"/>
      <use xlink:href="#CMR17-65" transform="translate(168.300529 0)scale(0.996264)"/>
      <use xlink:href="#CMR17-2d" transform="translate(208.786189 0)scale(0.996264)"/>
      <use xlink:href="#CMR17-56" transform="translate(238.862156 0)scale(0.996264)"/>
      <use xlink:href="#CMR17-65" transform="translate(300.12733 0)scale(0.996264)"/>
      <use xlink:href="#CMR17-6c" transform="translate(340.612991 0)scale(0.996264)"/>
      <use xlink:href="#CMR17-6f" transform="translate(365.484049 0)scale(0.996264)"/>
      <use xlink:href="#CMR17-63" transform="translate(413.776965 0)scale(0.996264)"/>
      <use xlink:href="#CMR17-69" transform="translate(454.262625 0)scale(0.996264)"/>
      <use xlink:href="#CMR17-74" transform="translate(479.133684 0)scale(0.996264)"/>
      <use xlink:href="#CMR17-79" transform="translate(511.811998 0)scale(0.996264)"/>
     </g>
    </g>
   </g>
  </g>
 </g>
 <defs>
  <clipPath id="p5a5dbbaa35">
   <rect x="126.72" y="8.64" width="1002.24" height="360.72"/>
  </clipPath>
 </defs>
</svg>
